<svg width="25" height="12" viewBox="0 0 25 12" fill="none" xmlns="http://www.w3.org/2000/svg">
<path opacity="0.35" d="M2.99992 0.502686H19.6666C20.8632 0.502686 21.8333 1.47273 21.8333 2.66935V8.66935C21.8333 9.86597 20.8632 10.836 19.6666 10.836H2.99992C1.8033 10.836 0.833252 9.86597 0.833252 8.66935V2.66935C0.833252 1.47273 1.8033 0.502686 2.99992 0.502686Z" fill="#070707" stroke="#050505"/>
<path opacity="0.4" d="M23.3333 3.66931V7.66931C24.138 7.33053 24.6613 6.54244 24.6613 5.66931C24.6613 4.79618 24.138 4.00809 23.3333 3.66931" fill="#070707"/>
<path d="M2.33325 3.10269C2.33325 2.49517 2.82574 2.00269 3.43325 2.00269H19.2333C19.8408 2.00269 20.3333 2.49517 20.3333 3.10269V8.23602C20.3333 8.84353 19.8408 9.33602 19.2333 9.33602H3.43325C2.82574 9.33602 2.33325 8.84353 2.33325 8.23602V3.10269Z" fill="#070707"/>
</svg>
