<svg width="109" height="141" viewBox="0 0 109 141" fill="none" xmlns="http://www.w3.org/2000/svg">
<path fill-rule="evenodd" clip-rule="evenodd" d="M12 0C5.37258 0 0 5.37258 0 12V129C0 135.627 5.37259 141 12 141H92C98.6274 141 104 135.627 104 129V12C104 5.37258 98.6274 0 92 0H12Z" fill="white"/>
<path fill-rule="evenodd" clip-rule="evenodd" d="M12 0C5.37258 0 0 5.37258 0 12V129C0 135.627 5.37259 141 12 141H92C98.6274 141 104 135.627 104 129V12C104 5.37258 98.6274 0 92 0H12Z" fill="url(#paint0_linear_104_3946)"/>
<g filter="url(#filter0_d_104_3946)">
<path d="M17.0462 48L13.3516 34.9091H15.902L18.2607 44.5291H18.3821L20.9006 34.9091H23.2209L25.7457 44.5355H25.8608L28.2195 34.9091H30.7699L27.0753 48H24.7358L22.1151 38.8146H22.0128L19.3857 48H17.0462ZM34.7566 48.1918C33.7722 48.1918 32.9221 47.9872 32.2062 47.5781C31.4945 47.1648 30.9469 46.581 30.5634 45.8267C30.1799 45.0682 29.9881 44.1754 29.9881 43.1484C29.9881 42.1385 30.1799 41.2521 30.5634 40.4893C30.9512 39.7223 31.4924 39.1257 32.187 38.6996C32.8816 38.2692 33.6977 38.054 34.6352 38.054C35.2403 38.054 35.8113 38.152 36.3482 38.348C36.8894 38.5398 37.3667 38.8381 37.78 39.2429C38.1977 39.6477 38.5258 40.1634 38.7644 40.7898C39.0031 41.4119 39.1224 42.1534 39.1224 43.0142V43.7237H31.0748V42.1641H36.9043C36.9001 41.7209 36.8042 41.3267 36.6167 40.9815C36.4292 40.6321 36.1671 40.3572 35.8305 40.157C35.4981 39.9567 35.1103 39.8565 34.6671 39.8565C34.1941 39.8565 33.7786 39.9716 33.4207 40.2017C33.0627 40.4276 32.7836 40.7259 32.5833 41.0966C32.3873 41.4631 32.2871 41.8658 32.2829 42.3047V43.6662C32.2829 44.2372 32.3873 44.7273 32.5961 45.1364C32.8049 45.5412 33.0968 45.8523 33.4718 46.0696C33.8468 46.2827 34.2857 46.3892 34.7886 46.3892C35.1252 46.3892 35.4299 46.3423 35.7026 46.2486C35.9754 46.1506 36.2119 46.0078 36.4121 45.8203C36.6124 45.6328 36.7637 45.4006 36.866 45.1236L39.0265 45.3665C38.8901 45.9375 38.6302 46.4361 38.2467 46.8622C37.8674 47.2841 37.3816 47.6122 36.7893 47.8466C36.1969 48.0767 35.5194 48.1918 34.7566 48.1918ZM44.5265 48.1918C43.5422 48.1918 42.692 47.9872 41.9761 47.5781C41.2645 47.1648 40.7169 46.581 40.3333 45.8267C39.9498 45.0682 39.7581 44.1754 39.7581 43.1484C39.7581 42.1385 39.9498 41.2521 40.3333 40.4893C40.7211 39.7223 41.2623 39.1257 41.9569 38.6996C42.6515 38.2692 43.4676 38.054 44.4051 38.054C45.0102 38.054 45.5812 38.152 46.1181 38.348C46.6593 38.5398 47.1366 38.8381 47.55 39.2429C47.9676 39.6477 48.2957 40.1634 48.5343 40.7898C48.773 41.4119 48.8923 42.1534 48.8923 43.0142V43.7237H40.8447V42.1641H46.6743C46.67 41.7209 46.5741 41.3267 46.3866 40.9815C46.1991 40.6321 45.937 40.3572 45.6004 40.157C45.268 39.9567 44.8802 39.8565 44.437 39.8565C43.964 39.8565 43.5485 39.9716 43.1906 40.2017C42.8326 40.4276 42.5535 40.7259 42.3532 41.0966C42.1572 41.4631 42.0571 41.8658 42.0528 42.3047V43.6662C42.0528 44.2372 42.1572 44.7273 42.366 45.1364C42.5748 45.5412 42.8667 45.8523 43.2417 46.0696C43.6167 46.2827 44.0556 46.3892 44.5585 46.3892C44.8951 46.3892 45.1998 46.3423 45.4726 46.2486C45.7453 46.1506 45.9818 46.0078 46.1821 45.8203C46.3824 45.6328 46.5336 45.4006 46.6359 45.1236L48.7964 45.3665C48.6601 45.9375 48.4001 46.4361 48.0166 46.8622C47.6373 47.2841 47.1515 47.6122 46.5592 47.8466C45.9669 48.0767 45.2893 48.1918 44.5265 48.1918ZM52.0592 44.919L52.0528 42.1257H52.4236L55.952 38.1818H58.6558L54.3156 43.0142H53.8362L52.0592 44.919ZM49.9499 48V34.9091H52.2638V48H49.9499ZM56.1118 48L52.9158 43.532L54.4754 41.902L58.8795 48H56.1118ZM61.6118 34.9091V48H59.2979V34.9091H61.6118ZM64.5295 51.6818C64.2141 51.6818 63.9222 51.6563 63.6538 51.6051C63.3896 51.5582 63.1786 51.5028 63.021 51.4389L63.5579 49.6364C63.8945 49.7344 64.195 49.7813 64.4592 49.777C64.7234 49.7727 64.9556 49.6896 65.1559 49.5277C65.3604 49.37 65.533 49.1058 65.6737 48.7351L65.8718 48.2045L62.3114 38.1818H64.766L67.0288 45.5966H67.131L69.4002 38.1818H71.8612L67.93 49.1889C67.7468 49.7088 67.5039 50.1541 67.2013 50.5249C66.8988 50.8999 66.5281 51.1854 66.0891 51.3814C65.6545 51.5817 65.1346 51.6818 64.5295 51.6818ZM76.2295 48V34.9091H81.2408C82.1869 34.9091 82.9731 35.0582 83.5995 35.3565C84.2302 35.6506 84.7011 36.0533 85.0121 36.5646C85.3275 37.076 85.4852 37.6555 85.4852 38.3033C85.4852 38.8359 85.3829 39.2919 85.1783 39.6712C84.9738 40.0462 84.6989 40.3509 84.3538 40.5852C84.0086 40.8196 83.6229 40.9879 83.1968 41.0902V41.218C83.6613 41.2436 84.1066 41.3864 84.5327 41.6463C84.9631 41.902 85.3147 42.2642 85.5874 42.733C85.8602 43.2017 85.9965 43.7685 85.9965 44.4332C85.9965 45.1108 85.8325 45.7202 85.5043 46.2614C85.1762 46.7983 84.6819 47.2223 84.0214 47.5334C83.3609 47.8445 82.5299 48 81.5285 48H76.2295ZM78.6009 46.0185H81.1514C82.0121 46.0185 82.6322 45.8544 83.0114 45.5263C83.395 45.1939 83.5867 44.7678 83.5867 44.2479C83.5867 43.8601 83.4908 43.5107 83.2991 43.1996C83.1073 42.8842 82.8346 42.6371 82.4809 42.4581C82.1272 42.2749 81.7053 42.1832 81.2153 42.1832H78.6009V46.0185ZM78.6009 40.4766H80.9468C81.3559 40.4766 81.7245 40.402 82.0526 40.2528C82.3808 40.0994 82.6386 39.8842 82.8261 39.6072C83.0178 39.326 83.1137 38.9936 83.1137 38.6101C83.1137 38.103 82.9347 37.6854 82.5768 37.3572C82.2231 37.0291 81.6968 36.8651 80.9979 36.8651H78.6009V40.4766ZM91.4039 48.1918C90.4195 48.1918 89.5694 47.9872 88.8534 47.5781C88.1418 47.1648 87.5942 46.581 87.2107 45.8267C86.8272 45.0682 86.6354 44.1754 86.6354 43.1484C86.6354 42.1385 86.8272 41.2521 87.2107 40.4893C87.5985 39.7223 88.1397 39.1257 88.8343 38.6996C89.5289 38.2692 90.3449 38.054 91.2824 38.054C91.8875 38.054 92.4586 38.152 92.9955 38.348C93.5367 38.5398 94.014 38.8381 94.4273 39.2429C94.8449 39.6477 95.1731 40.1634 95.4117 40.7898C95.6503 41.4119 95.7696 42.1534 95.7696 43.0142V43.7237H87.7221V42.1641H93.5516C93.5473 41.7209 93.4515 41.3267 93.264 40.9815C93.0765 40.6321 92.8144 40.3572 92.4777 40.157C92.1454 39.9567 91.7576 39.8565 91.3144 39.8565C90.8414 39.8565 90.4259 39.9716 90.0679 40.2017C89.71 40.4276 89.4309 40.7259 89.2306 41.0966C89.0346 41.4631 88.9344 41.8658 88.9302 42.3047V43.6662C88.9302 44.2372 89.0346 44.7273 89.2434 45.1364C89.4522 45.5412 89.7441 45.8523 90.1191 46.0696C90.4941 46.2827 90.933 46.3892 91.4358 46.3892C91.7725 46.3892 92.0772 46.3423 92.3499 46.2486C92.6226 46.1506 92.8591 46.0078 93.0594 45.8203C93.2597 45.6328 93.411 45.4006 93.5132 45.1236L95.6738 45.3665C95.5374 45.9375 95.2775 46.4361 94.8939 46.8622C94.5147 47.2841 94.0289 47.6122 93.4365 47.8466C92.8442 48.0767 92.1667 48.1918 91.4039 48.1918ZM104.587 40.777L102.478 41.0071C102.418 40.794 102.314 40.5938 102.165 40.4062C102.02 40.2188 101.824 40.0675 101.576 39.9524C101.329 39.8374 101.027 39.7798 100.669 39.7798C100.187 39.7798 99.7825 39.8842 99.4543 40.093C99.1305 40.3018 98.9707 40.5724 98.9749 40.9048C98.9707 41.1903 99.0751 41.4226 99.2881 41.6016C99.5055 41.7805 99.8634 41.9276 100.362 42.0426L102.037 42.4006C102.966 42.6009 103.656 42.9183 104.108 43.353C104.564 43.7876 104.794 44.3565 104.798 45.0597C104.794 45.6776 104.613 46.223 104.255 46.696C103.901 47.1648 103.409 47.5312 102.778 47.7955C102.148 48.0597 101.423 48.1918 100.605 48.1918C99.4032 48.1918 98.4359 47.9403 97.7029 47.4375C96.97 46.9304 96.5332 46.2251 96.3925 45.3217L98.6489 45.1044C98.7512 45.5476 98.9685 45.8821 99.3009 46.108C99.6333 46.3338 100.066 46.4467 100.599 46.4467C101.148 46.4467 101.589 46.3338 101.922 46.108C102.258 45.8821 102.427 45.603 102.427 45.2706C102.427 44.9893 102.318 44.7571 102.101 44.5739C101.888 44.3906 101.555 44.25 101.103 44.152L99.4288 43.8004C98.487 43.6044 97.7903 43.2741 97.3386 42.8097C96.8869 42.3409 96.6631 41.7486 96.6674 41.0327C96.6631 40.4276 96.8272 39.9034 97.1596 39.4602C97.4962 39.0128 97.9629 38.6676 98.5594 38.4247C99.1603 38.1776 99.8528 38.054 100.637 38.054C101.787 38.054 102.693 38.299 103.353 38.7891C104.018 39.2791 104.429 39.9418 104.587 40.777ZM110.709 38.1818V39.9716H105.065V38.1818H110.709ZM106.458 35.8295H108.772V45.0469C108.772 45.358 108.819 45.5966 108.913 45.7628C109.011 45.9247 109.138 46.0355 109.296 46.0952C109.454 46.1548 109.629 46.1847 109.82 46.1847C109.965 46.1847 110.097 46.174 110.217 46.1527C110.34 46.1314 110.434 46.1122 110.498 46.0952L110.888 47.9041C110.764 47.9467 110.587 47.9936 110.357 48.0447C110.131 48.0959 109.854 48.1257 109.526 48.1342C108.947 48.1513 108.425 48.0639 107.96 47.8722C107.496 47.6761 107.127 47.3736 106.854 46.9645C106.586 46.5554 106.454 46.044 106.458 45.4304V35.8295ZM18.7273 74H14.2912V60.9091H18.8168C20.1165 60.9091 21.233 61.1712 22.1662 61.6953C23.1037 62.2152 23.8239 62.9631 24.3267 63.9389C24.8295 64.9148 25.081 66.0824 25.081 67.4418C25.081 68.8054 24.8274 69.9773 24.3203 70.9574C23.8175 71.9375 23.0909 72.6896 22.1406 73.2138C21.1946 73.7379 20.0568 74 18.7273 74ZM16.6626 71.9482H18.6122C19.5241 71.9482 20.2848 71.782 20.8942 71.4496C21.5036 71.1129 21.9616 70.6122 22.2685 69.9474C22.5753 69.2784 22.7287 68.4432 22.7287 67.4418C22.7287 66.4403 22.5753 65.6094 22.2685 64.9489C21.9616 64.2841 21.5078 63.7876 20.907 63.4595C20.3104 63.1271 19.5689 62.9609 18.6825 62.9609H16.6626V71.9482ZM30.6785 74.1918C29.6941 74.1918 28.844 73.9872 28.1281 73.5781C27.4164 73.1648 26.8688 72.581 26.4853 71.8267C26.1018 71.0682 25.91 70.1754 25.91 69.1484C25.91 68.1385 26.1018 67.2521 26.4853 66.4893C26.8731 65.7223 27.4143 65.1257 28.1089 64.6996C28.8035 64.2692 29.6195 64.054 30.557 64.054C31.1621 64.054 31.7332 64.152 32.2701 64.348C32.8113 64.5398 33.2886 64.8381 33.7019 65.2429C34.1195 65.6477 34.4477 66.1634 34.6863 66.7898C34.9249 67.4119 35.0442 68.1534 35.0442 69.0142V69.7237H26.9967V68.1641H32.8262C32.8219 67.7209 32.7261 67.3267 32.5386 66.9815C32.3511 66.6321 32.089 66.3572 31.7523 66.157C31.42 65.9567 31.0322 65.8565 30.589 65.8565C30.116 65.8565 29.7005 65.9716 29.3425 66.2017C28.9846 66.4276 28.7055 66.7259 28.5052 67.0966C28.3092 67.4631 28.209 67.8658 28.2048 68.3047V69.6662C28.2048 70.2372 28.3092 70.7273 28.518 71.1364C28.7268 71.5412 29.0187 71.8523 29.3937 72.0696C29.7687 72.2827 30.2076 72.3892 30.7104 72.3892C31.0471 72.3892 31.3518 72.3423 31.6245 72.2486C31.8972 72.1506 32.1337 72.0078 32.334 71.8203C32.5343 71.6328 32.6856 71.4006 32.7879 71.1236L34.9484 71.3665C34.812 71.9375 34.5521 72.4361 34.1685 72.8622C33.7893 73.2841 33.3035 73.6122 32.7112 73.8466C32.1188 74.0767 31.4413 74.1918 30.6785 74.1918ZM38.9271 74.1982C38.3049 74.1982 37.7446 74.0874 37.246 73.8658C36.7517 73.6399 36.3596 73.3075 36.0699 72.8686C35.7843 72.4297 35.6416 71.8885 35.6416 71.245C35.6416 70.6911 35.7439 70.233 35.9484 69.8707C36.1529 69.5085 36.4321 69.2188 36.7858 69.0014C37.1395 68.7841 37.5379 68.62 37.9811 68.5092C38.4285 68.3942 38.8909 68.3111 39.3681 68.2599C39.9434 68.2003 40.4101 68.147 40.768 68.1001C41.126 68.049 41.3859 67.9723 41.5478 67.87C41.714 67.7635 41.7971 67.5994 41.7971 67.3778V67.3395C41.7971 66.858 41.6544 66.4851 41.3689 66.2209C41.0833 65.9567 40.6721 65.8246 40.1352 65.8246C39.5684 65.8246 39.1189 65.9482 38.7865 66.1953C38.4583 66.4425 38.2368 66.7344 38.1217 67.071L35.9612 66.7642C36.1316 66.1676 36.4129 65.669 36.8049 65.2685C37.197 64.8636 37.6764 64.5611 38.2431 64.3608C38.8099 64.1562 39.4363 64.054 40.1224 64.054C40.5954 64.054 41.0663 64.1094 41.5351 64.2202C42.0038 64.331 42.4321 64.5142 42.8199 64.7699C43.2076 65.0213 43.5187 65.3643 43.7531 65.799C43.9917 66.2337 44.111 66.777 44.111 67.429V74H41.8866V72.6513H41.8099C41.6693 72.924 41.4711 73.1797 41.2154 73.4183C40.964 73.6527 40.6466 73.8423 40.263 73.9872C39.8838 74.1278 39.4385 74.1982 38.9271 74.1982ZM39.5279 72.4979C39.9924 72.4979 40.3951 72.4062 40.736 72.223C41.077 72.0355 41.339 71.7884 41.5223 71.4815C41.7098 71.1747 41.8035 70.8402 41.8035 70.478V69.321C41.7311 69.3807 41.6075 69.4361 41.4328 69.4872C41.2623 69.5384 41.0706 69.5831 40.8575 69.6214C40.6444 69.6598 40.4335 69.6939 40.2247 69.7237C40.0159 69.7536 39.8348 69.7791 39.6814 69.8004C39.3362 69.8473 39.0272 69.924 38.7545 70.0305C38.4818 70.1371 38.2666 70.2862 38.1089 70.478C37.9512 70.6655 37.8724 70.9084 37.8724 71.2067C37.8724 71.6328 38.0279 71.9545 38.339 72.1719C38.6501 72.3892 39.0464 72.4979 39.5279 72.4979ZM47.8517 60.9091V74H45.5377V60.9091H47.8517ZM57.0911 66.777L54.9817 67.0071C54.922 66.794 54.8176 66.5938 54.6685 66.4062C54.5236 66.2188 54.3276 66.0675 54.0804 65.9524C53.8332 65.8374 53.5307 65.7798 53.1727 65.7798C52.6912 65.7798 52.2864 65.8842 51.9582 66.093C51.6344 66.3018 51.4746 66.5724 51.4788 66.9048C51.4746 67.1903 51.579 67.4226 51.792 67.6016C52.0094 67.7805 52.3673 67.9276 52.8659 68.0426L54.5406 68.4006C55.4696 68.6009 56.1599 68.9183 56.6116 69.353C57.0676 69.7876 57.2977 70.3565 57.302 71.0597C57.2977 71.6776 57.1166 72.223 56.7587 72.696C56.405 73.1648 55.9128 73.5312 55.2821 73.7955C54.6514 74.0597 53.927 74.1918 53.1088 74.1918C51.9071 74.1918 50.9398 73.9403 50.2068 73.4375C49.4739 72.9304 49.0371 72.2251 48.8965 71.3217L51.1528 71.1044C51.2551 71.5476 51.4724 71.8821 51.8048 72.108C52.1372 72.3338 52.5697 72.4467 53.1024 72.4467C53.6521 72.4467 54.0932 72.3338 54.4256 72.108C54.7622 71.8821 54.9305 71.603 54.9305 71.2706C54.9305 70.9893 54.8219 70.7571 54.6045 70.5739C54.3915 70.3906 54.0591 70.25 53.6074 70.152L51.9327 69.8004C50.9909 69.6044 50.2942 69.2741 49.8425 68.8097C49.3908 68.3409 49.167 67.7486 49.1713 67.0327C49.167 66.4276 49.3311 65.9034 49.6635 65.4602C50.0001 65.0128 50.4668 64.6676 51.0634 64.4247C51.6642 64.1776 52.3567 64.054 53.1408 64.054C54.2913 64.054 55.1969 64.299 55.8574 64.7891C56.5222 65.2791 56.9334 65.9418 57.0911 66.777Z" fill="#FAFAFA"/>
</g>
<g opacity="0.8" filter="url(#filter1_d_104_3946)">
<path d="M23.8239 117.545C23.8239 118.721 23.6037 119.728 23.1634 120.566C22.7266 121.4 22.13 122.039 21.3736 122.483C20.6207 122.927 19.7667 123.149 18.8114 123.149C17.8562 123.149 17.0004 122.927 16.244 122.483C15.4911 122.036 14.8945 121.395 14.4542 120.56C14.0174 119.722 13.799 118.717 13.799 117.545C13.799 116.37 14.0174 115.365 14.4542 114.531C14.8945 113.692 15.4911 113.051 16.244 112.608C17.0004 112.164 17.8562 111.942 18.8114 111.942C19.7667 111.942 20.6207 112.164 21.3736 112.608C22.13 113.051 22.7266 113.692 23.1634 114.531C23.6037 115.365 23.8239 116.37 23.8239 117.545ZM21.837 117.545C21.837 116.718 21.7074 116.02 21.4482 115.452C21.1925 114.88 20.8374 114.449 20.3828 114.158C19.9283 113.863 19.4045 113.716 18.8114 113.716C18.2184 113.716 17.6946 113.863 17.2401 114.158C16.7855 114.449 16.4286 114.88 16.1694 115.452C15.9137 116.02 15.7859 116.718 15.7859 117.545C15.7859 118.373 15.9137 119.072 16.1694 119.644C16.4286 120.212 16.7855 120.644 17.2401 120.939C17.6946 121.23 18.2184 121.375 18.8114 121.375C19.4045 121.375 19.9283 121.23 20.3828 120.939C20.8374 120.644 21.1925 120.212 21.4482 119.644C21.7074 119.072 21.837 118.373 21.837 117.545ZM29.0012 114.818V116.31H24.1645V114.818H29.0012ZM25.3737 123V114.046C25.3737 113.495 25.4873 113.037 25.7146 112.672C25.9454 112.306 26.2544 112.032 26.6414 111.851C27.0285 111.67 27.4582 111.58 27.9305 111.58C28.2643 111.58 28.5608 111.606 28.82 111.659C29.0793 111.713 29.271 111.761 29.3953 111.803L29.0118 113.295C28.9301 113.27 28.8271 113.245 28.7029 113.22C28.5786 113.192 28.4401 113.178 28.2874 113.178C27.9287 113.178 27.6748 113.265 27.5257 113.439C27.3801 113.609 27.3073 113.854 27.3073 114.174V123H25.3737ZM33.9055 114.818V116.31H29.0688V114.818H33.9055ZM30.278 123V114.046C30.278 113.495 30.3916 113.037 30.6189 112.672C30.8497 112.306 31.1586 112.032 31.5457 111.851C31.9328 111.67 32.3625 111.58 32.8348 111.58C33.1686 111.58 33.4651 111.606 33.7243 111.659C33.9836 111.713 34.1753 111.761 34.2996 111.803L33.9161 113.295C33.8344 113.27 33.7314 113.245 33.6072 113.22C33.4829 113.192 33.3444 113.178 33.1917 113.178C32.833 113.178 32.5791 113.265 32.43 113.439C32.2844 113.609 32.2116 113.854 32.2116 114.174V123H30.278ZM42.8511 119.559V114.818H44.7794V123H42.9097V121.546H42.8245C42.6398 122.004 42.3362 122.379 41.9136 122.67C41.4946 122.961 40.9779 123.107 40.3635 123.107C39.8273 123.107 39.3532 122.988 38.9413 122.75C38.5329 122.508 38.2133 122.158 37.9825 121.7C37.7517 121.239 37.6363 120.681 37.6363 120.028V114.818H39.5645V119.729C39.5645 120.248 39.7066 120.66 39.9907 120.965C40.2748 121.271 40.6476 121.423 41.1093 121.423C41.3934 121.423 41.6686 121.354 41.9349 121.216C42.2013 121.077 42.4197 120.871 42.5901 120.598C42.7641 120.321 42.8511 119.974 42.8511 119.559ZM46.0123 126.068V114.818H47.9086V116.171H48.0204C48.1199 115.972 48.2601 115.761 48.4412 115.537C48.6223 115.31 48.8674 115.116 49.1763 114.957C49.4853 114.793 49.8794 114.712 50.3588 114.712C50.9909 114.712 51.5609 114.873 52.0687 115.196C52.5801 115.516 52.9849 115.99 53.2832 116.619C53.585 117.244 53.736 118.011 53.736 118.92C53.736 119.818 53.5886 120.582 53.2939 121.21C52.9991 121.839 52.5978 122.318 52.09 122.648C51.5822 122.979 51.0069 123.144 50.3642 123.144C49.8954 123.144 49.5066 123.066 49.1976 122.909C48.8887 122.753 48.6401 122.565 48.4519 122.345C48.2672 122.121 48.1234 121.91 48.0204 121.711H47.9405V126.068H46.0123ZM47.9032 118.909C47.9032 119.438 47.9778 119.902 48.127 120.299C48.2797 120.697 48.498 121.008 48.7821 121.232C49.0698 121.452 49.4178 121.562 49.8262 121.562C50.2523 121.562 50.6092 121.448 50.8968 121.221C51.1845 120.99 51.4011 120.676 51.5467 120.278C51.6958 119.877 51.7704 119.42 51.7704 118.909C51.7704 118.401 51.6976 117.95 51.552 117.556C51.4064 117.162 51.1898 116.853 50.9022 116.629C50.6145 116.406 50.2559 116.294 49.8262 116.294C49.4142 116.294 49.0645 116.402 48.7768 116.619C48.4892 116.835 48.2708 117.139 48.1216 117.529C47.976 117.92 47.9032 118.38 47.9032 118.909ZM61.6935 114.818V116.31H56.9901V114.818H61.6935ZM58.1513 112.858H60.0795V120.539C60.0795 120.798 60.1186 120.997 60.1967 121.136C60.2784 121.271 60.3849 121.363 60.5163 121.413C60.6477 121.462 60.7933 121.487 60.9531 121.487C61.0739 121.487 61.1839 121.478 61.2834 121.461C61.3864 121.443 61.4645 121.427 61.5178 121.413L61.8427 122.92C61.7397 122.956 61.5923 122.995 61.4006 123.037C61.2124 123.08 60.9815 123.105 60.7081 123.112C60.2251 123.126 59.7901 123.053 59.4031 122.893C59.016 122.73 58.7088 122.478 58.4815 122.137C58.2578 121.796 58.1477 121.37 58.1513 120.859V112.858ZM66.0372 123.16C65.2382 123.16 64.5457 122.984 63.9598 122.632C63.3738 122.281 62.9193 121.789 62.5961 121.157C62.2765 120.525 62.1167 119.786 62.1167 118.941C62.1167 118.096 62.2765 117.355 62.5961 116.72C62.9193 116.084 63.3738 115.591 63.9598 115.239C64.5457 114.887 65.2382 114.712 66.0372 114.712C66.8362 114.712 67.5287 114.887 68.1146 115.239C68.7006 115.591 69.1533 116.084 69.4729 116.72C69.7961 117.355 69.9577 118.096 69.9577 118.941C69.9577 119.786 69.7961 120.525 69.4729 121.157C69.1533 121.789 68.7006 122.281 68.1146 122.632C67.5287 122.984 66.8362 123.16 66.0372 123.16ZM66.0479 121.615C66.4811 121.615 66.8433 121.496 67.1345 121.258C67.4257 121.017 67.6423 120.694 67.7844 120.289C67.93 119.884 68.0028 119.433 68.0028 118.936C68.0028 118.435 67.93 117.982 67.7844 117.577C67.6423 117.169 67.4257 116.844 67.1345 116.603C66.8433 116.361 66.4811 116.24 66.0479 116.24C65.604 116.24 65.2346 116.361 64.9399 116.603C64.6487 116.844 64.4303 117.169 64.2847 117.577C64.1427 117.982 64.0716 118.435 64.0716 118.936C64.0716 119.433 64.1427 119.884 64.2847 120.289C64.4303 120.694 64.6487 121.017 64.9399 121.258C65.2346 121.496 65.604 121.615 66.0479 121.615ZM77.5863 123.149C76.8761 123.149 76.2404 123.016 75.6793 122.75C75.1183 122.48 74.6726 122.11 74.3423 121.642C74.0156 121.173 73.8416 120.637 73.8203 120.033H75.7379C75.7734 120.48 75.967 120.846 76.3185 121.13C76.6701 121.411 77.0927 121.551 77.5863 121.551C77.9734 121.551 78.3178 121.462 78.6197 121.285C78.9215 121.107 79.1594 120.86 79.3335 120.544C79.5075 120.228 79.5927 119.868 79.5891 119.463C79.5927 119.051 79.5057 118.685 79.3281 118.366C79.1506 118.046 78.9073 117.796 78.5984 117.615C78.2894 117.43 77.9343 117.338 77.533 117.338C77.2063 117.334 76.8849 117.395 76.5689 117.519C76.2528 117.643 76.0025 117.806 75.8178 118.009L74.0334 117.716L74.6033 112.091H80.9315V113.742H76.2386L75.9244 116.635H75.9883C76.1907 116.397 76.4766 116.2 76.8459 116.043C77.2152 115.884 77.62 115.804 78.0604 115.804C78.7209 115.804 79.3104 115.96 79.8288 116.272C80.3473 116.581 80.7557 117.007 81.054 117.551C81.3523 118.094 81.5014 118.716 81.5014 119.415C81.5014 120.136 81.3345 120.779 81.0007 121.343C80.6705 121.904 80.2106 122.347 79.6211 122.67C79.0352 122.989 78.3569 123.149 77.5863 123.149ZM86.5682 123.208C85.6911 123.208 84.9382 122.986 84.3097 122.542C83.6847 122.094 83.2035 121.45 82.8661 120.608C82.5323 119.763 82.3654 118.746 82.3654 117.556C82.369 116.366 82.5376 115.354 82.8714 114.52C83.2088 113.682 83.69 113.043 84.315 112.602C84.9435 112.162 85.6946 111.942 86.5682 111.942C87.4418 111.942 88.1928 112.162 88.8214 112.602C89.4499 113.043 89.9311 113.682 90.2649 114.52C90.6023 115.358 90.771 116.37 90.771 117.556C90.771 118.749 90.6023 119.768 90.2649 120.614C89.9311 121.455 89.4499 122.098 88.8214 122.542C88.1964 122.986 87.4453 123.208 86.5682 123.208ZM86.5682 121.54C87.25 121.54 87.788 121.205 88.1822 120.534C88.5799 119.859 88.7788 118.866 88.7788 117.556C88.7788 116.69 88.6882 115.962 88.5071 115.372C88.326 114.783 88.0703 114.339 87.7401 114.04C87.4098 113.739 87.0192 113.588 86.5682 113.588C85.8899 113.588 85.3537 113.925 84.9595 114.6C84.5653 115.271 84.3665 116.256 84.3629 117.556C84.3594 118.426 84.4464 119.158 84.6239 119.751C84.805 120.344 85.0607 120.791 85.391 121.093C85.7212 121.391 86.1136 121.54 86.5682 121.54ZM97.6235 120.955V120.379C97.6235 119.957 97.7123 119.568 97.8898 119.213C98.0709 118.858 98.3337 118.572 98.6782 118.355C99.0226 118.138 99.4399 118.03 99.93 118.03C100.434 118.03 100.857 118.138 101.198 118.355C101.539 118.568 101.796 118.852 101.97 119.207C102.148 119.562 102.236 119.953 102.236 120.379V120.955C102.236 121.377 102.148 121.766 101.97 122.121C101.793 122.476 101.532 122.762 101.187 122.979C100.846 123.195 100.427 123.304 99.93 123.304C99.4328 123.304 99.012 123.195 98.6675 122.979C98.3231 122.762 98.0621 122.476 97.8845 122.121C97.7105 121.766 97.6235 121.377 97.6235 120.955ZM99.0138 120.379V120.955C99.0138 121.235 99.0812 121.493 99.2162 121.727C99.3511 121.961 99.589 122.078 99.93 122.078C100.274 122.078 100.511 121.963 100.638 121.732C100.77 121.498 100.835 121.239 100.835 120.955V120.379C100.835 120.095 100.773 119.836 100.649 119.602C100.525 119.364 100.285 119.245 99.93 119.245C99.5961 119.245 99.36 119.364 99.2215 119.602C99.083 119.836 99.0138 120.095 99.0138 120.379ZM92.0784 114.712V114.136C92.0784 113.71 92.1689 113.32 92.3501 112.964C92.5312 112.609 92.7939 112.325 93.1384 112.112C93.4829 111.896 93.9001 111.787 94.3902 111.787C94.8909 111.787 95.3117 111.896 95.6526 112.112C95.9971 112.325 96.2563 112.609 96.4303 112.964C96.6043 113.32 96.6913 113.71 96.6913 114.136V114.712C96.6913 115.138 96.6025 115.528 96.425 115.884C96.251 116.235 95.9917 116.517 95.6473 116.73C95.3028 116.944 94.8838 117.05 94.3902 117.05C93.8895 117.05 93.4669 116.944 93.1224 116.73C92.7815 116.517 92.5223 116.233 92.3447 115.878C92.1672 115.523 92.0784 115.134 92.0784 114.712ZM93.4793 114.136V114.712C93.4793 114.996 93.545 115.255 93.6764 115.489C93.8113 115.72 94.0493 115.836 94.3902 115.836C94.7311 115.836 94.9655 115.72 95.0933 115.489C95.2247 115.255 95.2904 114.996 95.2904 114.712V114.136C95.2904 113.852 95.2282 113.593 95.104 113.359C94.9797 113.121 94.7417 113.002 94.3902 113.002C94.0528 113.002 93.8167 113.121 93.6817 113.359C93.5468 113.597 93.4793 113.856 93.4793 114.136ZM92.6856 123L100.186 112.091H101.517L94.0173 123H92.6856Z" fill="#FAFAFA"/>
</g>
<defs>
<filter id="filter0_d_104_3946" x="11.3516" y="33.9091" width="101.536" height="43.2891" filterUnits="userSpaceOnUse" color-interpolation-filters="sRGB">
<feFlood flood-opacity="0" result="BackgroundImageFix"/>
<feColorMatrix in="SourceAlpha" type="matrix" values="0 0 0 0 0 0 0 0 0 0 0 0 0 0 0 0 0 0 127 0" result="hardAlpha"/>
<feOffset dy="1"/>
<feGaussianBlur stdDeviation="1"/>
<feComposite in2="hardAlpha" operator="out"/>
<feColorMatrix type="matrix" values="0 0 0 0 0 0 0 0 0 0 0 0 0 0 0 0 0 0 0.25 0"/>
<feBlend mode="normal" in2="BackgroundImageFix" result="effect1_dropShadow_104_3946"/>
<feBlend mode="normal" in="SourceGraphic" in2="effect1_dropShadow_104_3946" result="shape"/>
</filter>
<filter id="filter1_d_104_3946" x="11.7991" y="110.58" width="92.4374" height="18.4886" filterUnits="userSpaceOnUse" color-interpolation-filters="sRGB">
<feFlood flood-opacity="0" result="BackgroundImageFix"/>
<feColorMatrix in="SourceAlpha" type="matrix" values="0 0 0 0 0 0 0 0 0 0 0 0 0 0 0 0 0 0 127 0" result="hardAlpha"/>
<feOffset dy="1"/>
<feGaussianBlur stdDeviation="1"/>
<feComposite in2="hardAlpha" operator="out"/>
<feColorMatrix type="matrix" values="0 0 0 0 0 0 0 0 0 0 0 0 0 0 0 0 0 0 0.25 0"/>
<feBlend mode="normal" in2="BackgroundImageFix" result="effect1_dropShadow_104_3946"/>
<feBlend mode="normal" in="SourceGraphic" in2="effect1_dropShadow_104_3946" result="shape"/>
</filter>
<linearGradient id="paint0_linear_104_3946" x1="113.143" y1="-3.95611e-06" x2="50.6871" y2="139.283" gradientUnits="userSpaceOnUse">
<stop stop-color="#FF7253"/>
<stop offset="1" stop-color="#DA316E"/>
</linearGradient>
</defs>
</svg>
