<svg width="29" height="29" viewBox="0 0 29 29" fill="none" xmlns="http://www.w3.org/2000/svg">
<circle cx="14.4" cy="8.4" r="7.4" stroke="#121212" stroke-opacity="0.9" stroke-width="2"/>
<line x1="15.0715" y1="0.685669" x2="15.0715" y2="2.39995" stroke="#121212" stroke-opacity="0.9"/>
<line y1="-0.5" x2="1.71429" y2="-0.5" transform="matrix(0 -1 -1 0 14.5715 16.1143)" stroke="#121212" stroke-opacity="0.9"/>
<line x1="18.6044" y1="2.30713" x2="17.7473" y2="3.79174" stroke="#121212" stroke-opacity="0.9"/>
<line y1="-0.5" x2="1.71429" y2="-0.5" transform="matrix(0.5 0.866025 0.866025 -0.5 10.6287 2.05713)" stroke="#121212" stroke-opacity="0.9"/>
<line y1="-0.5" x2="1.71429" y2="-0.5" transform="matrix(-0.5 -0.866025 -0.866025 0.5 18.1714 14.7428)" stroke="#121212" stroke-opacity="0.9"/>
<line x1="10.1956" y1="14.4928" x2="11.0528" y2="13.0082" stroke="#121212" stroke-opacity="0.9"/>
<line x1="21.106" y1="5.23306" x2="19.6213" y2="6.0902" stroke="#121212" stroke-opacity="0.9"/>
<line y1="-0.5" x2="1.71429" y2="-0.5" transform="matrix(0.866025 0.5 0.5 -0.866025 7.94385 4.80005)" stroke="#121212" stroke-opacity="0.9"/>
<line y1="-0.5" x2="1.71429" y2="-0.5" transform="matrix(-0.866025 -0.5 -0.5 0.866025 20.856 12)" stroke="#121212" stroke-opacity="0.9"/>
<line x1="7.69385" y1="11.567" x2="9.17846" y2="10.7098" stroke="#121212" stroke-opacity="0.9"/>
<line y1="-0.5" x2="1.71429" y2="-0.5" transform="matrix(-1 8.74228e-08 8.74228e-08 1 22.1143 8.57141)" stroke="#121212" stroke-opacity="0.9"/>
<line x1="6.68579" y1="8.07141" x2="8.40008" y2="8.07141" stroke="#121212" stroke-opacity="0.9"/>
<path d="M14.5715 5.48572L14.8944 8.39162C14.9051 8.48754 14.83 8.57143 14.7335 8.57143C14.644 8.57143 14.5715 8.49893 14.5715 8.4095V5.48572Z" fill="#121212" fill-opacity="0.9"/>
<path d="M19.3713 8.22852L14.7484 8.55872C14.6527 8.56556 14.5713 8.48977 14.5713 8.39383C14.5713 8.30253 14.6454 8.22852 14.7367 8.22852L19.3713 8.22852Z" fill="#121212" fill-opacity="0.9"/>
<path d="M4.92188 23.3525V24.0425H1.45898V23.3525H4.92188ZM1.59082 20.6016V27H0.742676V20.6016H1.59082ZM5.66016 20.6016V27H4.81641V20.6016H5.66016ZM7.92773 22.2451V27H7.11035V22.2451H7.92773ZM7.04883 20.9839C7.04883 20.8521 7.08838 20.7407 7.16748 20.6499C7.24951 20.5591 7.36963 20.5137 7.52783 20.5137C7.68311 20.5137 7.80176 20.5591 7.88379 20.6499C7.96875 20.7407 8.01123 20.8521 8.01123 20.9839C8.01123 21.1099 7.96875 21.2183 7.88379 21.3091C7.80176 21.397 7.68311 21.4409 7.52783 21.4409C7.36963 21.4409 7.24951 21.397 7.16748 21.3091C7.08838 21.2183 7.04883 21.1099 7.04883 20.9839ZM12.0015 25.7388C12.0015 25.6216 11.9751 25.5132 11.9224 25.4136C11.8726 25.311 11.7686 25.2188 11.6104 25.1367C11.4551 25.0518 11.2207 24.9785 10.9072 24.917C10.6436 24.8613 10.4048 24.7954 10.1909 24.7192C9.97998 24.6431 9.7998 24.5508 9.65039 24.4424C9.50391 24.334 9.39111 24.2065 9.31201 24.0601C9.23291 23.9136 9.19336 23.7422 9.19336 23.5459C9.19336 23.3584 9.23438 23.1812 9.31641 23.0142C9.40137 22.8472 9.52002 22.6992 9.67236 22.5703C9.82764 22.4414 10.0137 22.3403 10.2305 22.2671C10.4473 22.1938 10.689 22.1572 10.9556 22.1572C11.3364 22.1572 11.6616 22.2246 11.9312 22.3594C12.2007 22.4941 12.4072 22.6743 12.5508 22.8999C12.6943 23.1226 12.7661 23.3701 12.7661 23.6426H11.9531C11.9531 23.5107 11.9136 23.3833 11.8345 23.2603C11.7583 23.1343 11.6455 23.0303 11.4961 22.9482C11.3496 22.8662 11.1694 22.8252 10.9556 22.8252C10.73 22.8252 10.5469 22.8604 10.4062 22.9307C10.2686 22.998 10.1675 23.0845 10.103 23.1899C10.0415 23.2954 10.0107 23.4067 10.0107 23.5239C10.0107 23.6118 10.0254 23.6909 10.0547 23.7612C10.0869 23.8286 10.1426 23.8916 10.2217 23.9502C10.3008 24.0059 10.4121 24.0586 10.5557 24.1084C10.6992 24.1582 10.8823 24.208 11.105 24.2578C11.4946 24.3457 11.8154 24.4512 12.0674 24.5742C12.3193 24.6973 12.5068 24.8481 12.6299 25.0269C12.7529 25.2056 12.8145 25.4224 12.8145 25.6772C12.8145 25.8853 12.7705 26.0757 12.6826 26.2485C12.5977 26.4214 12.4731 26.5708 12.3091 26.6968C12.1479 26.8198 11.9546 26.9165 11.729 26.9868C11.5063 27.0542 11.2559 27.0879 10.9775 27.0879C10.5586 27.0879 10.2041 27.0132 9.91406 26.8638C9.62402 26.7144 9.4043 26.521 9.25488 26.2837C9.10547 26.0464 9.03076 25.7959 9.03076 25.5322H9.84814C9.85986 25.7549 9.92432 25.9321 10.0415 26.064C10.1587 26.1929 10.3022 26.2852 10.4722 26.3408C10.6421 26.3936 10.8105 26.4199 10.9775 26.4199C11.2002 26.4199 11.3862 26.3906 11.5356 26.332C11.688 26.2734 11.8037 26.1929 11.8828 26.0903C11.9619 25.9878 12.0015 25.8706 12.0015 25.7388ZM15.873 22.2451V22.8691H13.3022V22.2451H15.873ZM14.1724 21.0894H14.9854V25.8223C14.9854 25.9834 15.0103 26.105 15.0601 26.187C15.1099 26.269 15.1743 26.3232 15.2534 26.3496C15.3325 26.376 15.4175 26.3892 15.5083 26.3892C15.5757 26.3892 15.646 26.3833 15.7192 26.3716C15.7954 26.3569 15.8525 26.3452 15.8906 26.3364L15.895 27C15.8306 27.0205 15.7456 27.0396 15.6401 27.0571C15.5376 27.0776 15.4131 27.0879 15.2666 27.0879C15.0674 27.0879 14.8843 27.0483 14.7173 26.9692C14.5503 26.8901 14.417 26.7583 14.3174 26.5737C14.2207 26.3862 14.1724 26.1343 14.1724 25.8179V21.0894ZM16.5234 24.6753V24.5742C16.5234 24.2314 16.5732 23.9136 16.6729 23.6206C16.7725 23.3247 16.916 23.0684 17.1035 22.8516C17.291 22.6318 17.5181 22.4619 17.7847 22.3418C18.0513 22.2188 18.3501 22.1572 18.6812 22.1572C19.0151 22.1572 19.3154 22.2188 19.582 22.3418C19.8516 22.4619 20.0801 22.6318 20.2676 22.8516C20.458 23.0684 20.603 23.3247 20.7026 23.6206C20.8022 23.9136 20.8521 24.2314 20.8521 24.5742V24.6753C20.8521 25.0181 20.8022 25.3359 20.7026 25.6289C20.603 25.9219 20.458 26.1782 20.2676 26.3979C20.0801 26.6147 19.853 26.7847 19.5864 26.9077C19.3228 27.0278 19.0239 27.0879 18.6899 27.0879C18.356 27.0879 18.0557 27.0278 17.7891 26.9077C17.5225 26.7847 17.2939 26.6147 17.1035 26.3979C16.916 26.1782 16.7725 25.9219 16.6729 25.6289C16.5732 25.3359 16.5234 25.0181 16.5234 24.6753ZM17.3364 24.5742V24.6753C17.3364 24.9126 17.3643 25.1367 17.4199 25.3477C17.4756 25.5557 17.5591 25.7402 17.6704 25.9014C17.7847 26.0625 17.9268 26.1899 18.0967 26.2837C18.2666 26.3745 18.4644 26.4199 18.6899 26.4199C18.9126 26.4199 19.1074 26.3745 19.2744 26.2837C19.4443 26.1899 19.585 26.0625 19.6963 25.9014C19.8076 25.7402 19.8911 25.5557 19.9468 25.3477C20.0054 25.1367 20.0347 24.9126 20.0347 24.6753V24.5742C20.0347 24.3398 20.0054 24.1187 19.9468 23.9106C19.8911 23.6997 19.8062 23.5137 19.6919 23.3525C19.5806 23.1885 19.4399 23.0596 19.27 22.9658C19.103 22.8721 18.9067 22.8252 18.6812 22.8252C18.4585 22.8252 18.2622 22.8721 18.0923 22.9658C17.9253 23.0596 17.7847 23.1885 17.6704 23.3525C17.5591 23.5137 17.4756 23.6997 17.4199 23.9106C17.3643 24.1187 17.3364 24.3398 17.3364 24.5742ZM22.6846 22.9922V27H21.8716V22.2451H22.6626L22.6846 22.9922ZM24.1699 22.2188L24.1655 22.9746C24.0981 22.96 24.0337 22.9512 23.9722 22.9482C23.9136 22.9424 23.8462 22.9395 23.77 22.9395C23.5825 22.9395 23.417 22.9688 23.2734 23.0273C23.1299 23.0859 23.0083 23.168 22.9087 23.2734C22.8091 23.3789 22.73 23.5049 22.6714 23.6514C22.6157 23.7949 22.5791 23.9531 22.5615 24.126L22.333 24.2578C22.333 23.9707 22.3608 23.7012 22.4165 23.4492C22.4751 23.1973 22.5645 22.9746 22.6846 22.7812C22.8047 22.585 22.957 22.4326 23.1416 22.3242C23.3291 22.2129 23.5518 22.1572 23.8096 22.1572C23.8682 22.1572 23.9355 22.1646 24.0117 22.1792C24.0879 22.1909 24.1406 22.2041 24.1699 22.2188ZM26.3364 26.5078L27.6592 22.2451H28.5293L26.6221 27.7339C26.5781 27.8511 26.5195 27.9771 26.4463 28.1118C26.376 28.2495 26.2852 28.3799 26.1738 28.5029C26.0625 28.626 25.9277 28.7256 25.7695 28.8018C25.6143 28.8809 25.4282 28.9204 25.2114 28.9204C25.147 28.9204 25.0649 28.9116 24.9653 28.894C24.8657 28.8765 24.7954 28.8618 24.7544 28.8501L24.75 28.1909C24.7734 28.1938 24.8101 28.1968 24.8599 28.1997C24.9126 28.2056 24.9492 28.2085 24.9697 28.2085C25.1543 28.2085 25.311 28.1836 25.4399 28.1338C25.5688 28.0869 25.6772 28.0063 25.7651 27.8921C25.856 27.7808 25.9336 27.627 25.998 27.4307L26.3364 26.5078ZM25.3652 22.2451L26.6001 25.9365L26.811 26.7935L26.2266 27.0923L24.4775 22.2451H25.3652Z" fill="#121212" fill-opacity="0.9"/>
</svg>
