<svg width="26" height="33" viewBox="0 0 26 33" fill="none" xmlns="http://www.w3.org/2000/svg">
<path d="M20.8213 10.6V17C20.8213 19.7614 18.5827 22 15.8213 22H7.15747" stroke="#FE5F59" stroke-opacity="0.5" stroke-width="2"/>
<line y1="-1" x2="14.1621" y2="-1" transform="matrix(0.661638 -0.749823 0.712257 0.701919 5 13.6191)" stroke="#FE5F59" stroke-opacity="0.5" stroke-width="2"/>
<line y1="-1" x2="14.1621" y2="-1" transform="matrix(0.661638 0.749823 -0.712257 0.701919 13.6299 3)" stroke="#FE5F59" stroke-opacity="0.5" stroke-width="2"/>
<path d="M13.6297 15.92V15.92C12.8354 15.92 12.1914 16.564 12.1914 17.3583V21.62" stroke="#FE5F59" stroke-opacity="0.5" stroke-width="2"/>
<path d="M13.6299 15.92V15.92C14.6228 15.92 15.4277 16.725 15.4277 17.7179V21.62" stroke="#FE5F59" stroke-opacity="0.5" stroke-width="2"/>
<rect x="12.1914" y="12.12" width="2.8766" height="1.52" rx="0.1" fill="#FE5F59" fill-opacity="0.5"/>
<path d="M20.7261 9.60278V16.007C20.7261 18.7685 18.4876 21.007 15.7261 21.007H6.28076" stroke="#FE5F59" stroke-width="2"/>
<line x1="3.26865" y1="11.941" x2="13.1748" y2="1.31799" stroke="#FE5F59" stroke-width="2"/>
<line x1="13.8546" y1="1.318" x2="23.7608" y2="11.9411" stroke="#FE5F59" stroke-width="2"/>
<path d="M13.1234 14.9248V14.9248C12.2836 14.9248 11.6028 15.6056 11.6028 16.4454V20.6269" stroke="#FE5F59" stroke-width="2"/>
<path d="M13.1235 14.9248V14.9248C14.1732 14.9248 15.0242 15.7758 15.0242 16.8255V20.6269" stroke="#FE5F59" stroke-width="2"/>
<rect x="11.6028" y="11.1234" width="3.04113" height="1.52057" rx="0.1" fill="#FE5F59"/>
<path d="M4.92188 28.3525V29.0425H1.45898V28.3525H4.92188ZM1.59082 25.6016V32H0.742676V25.6016H1.59082ZM5.66016 25.6016V32H4.81641V25.6016H5.66016ZM6.8291 29.6753V29.5742C6.8291 29.2314 6.87891 28.9136 6.97852 28.6206C7.07812 28.3247 7.22168 28.0684 7.40918 27.8516C7.59668 27.6318 7.82373 27.4619 8.09033 27.3418C8.35693 27.2188 8.65576 27.1572 8.98682 27.1572C9.3208 27.1572 9.62109 27.2188 9.8877 27.3418C10.1572 27.4619 10.3857 27.6318 10.5732 27.8516C10.7637 28.0684 10.9087 28.3247 11.0083 28.6206C11.1079 28.9136 11.1577 29.2314 11.1577 29.5742V29.6753C11.1577 30.0181 11.1079 30.3359 11.0083 30.6289C10.9087 30.9219 10.7637 31.1782 10.5732 31.3979C10.3857 31.6147 10.1587 31.7847 9.89209 31.9077C9.62842 32.0278 9.32959 32.0879 8.99561 32.0879C8.66162 32.0879 8.36133 32.0278 8.09473 31.9077C7.82812 31.7847 7.59961 31.6147 7.40918 31.3979C7.22168 31.1782 7.07812 30.9219 6.97852 30.6289C6.87891 30.3359 6.8291 30.0181 6.8291 29.6753ZM7.64209 29.5742V29.6753C7.64209 29.9126 7.66992 30.1367 7.72559 30.3477C7.78125 30.5557 7.86475 30.7402 7.97607 30.9014C8.09033 31.0625 8.23242 31.1899 8.40234 31.2837C8.57227 31.3745 8.77002 31.4199 8.99561 31.4199C9.21826 31.4199 9.41309 31.3745 9.58008 31.2837C9.75 31.1899 9.89062 31.0625 10.002 30.9014C10.1133 30.7402 10.1968 30.5557 10.2524 30.3477C10.311 30.1367 10.3403 29.9126 10.3403 29.6753V29.5742C10.3403 29.3398 10.311 29.1187 10.2524 28.9106C10.1968 28.6997 10.1118 28.5137 9.99756 28.3525C9.88623 28.1885 9.74561 28.0596 9.57568 27.9658C9.40869 27.8721 9.2124 27.8252 8.98682 27.8252C8.76416 27.8252 8.56787 27.8721 8.39795 27.9658C8.23096 28.0596 8.09033 28.1885 7.97607 28.3525C7.86475 28.5137 7.78125 28.6997 7.72559 28.9106C7.66992 29.1187 7.64209 29.3398 7.64209 29.5742ZM12.9858 28.1899V32H12.1685V27.2451H12.9419L12.9858 28.1899ZM12.8188 29.4424L12.4409 29.4292C12.4438 29.104 12.4863 28.8037 12.5684 28.5283C12.6504 28.25 12.772 28.0083 12.9331 27.8032C13.0942 27.5981 13.2949 27.4399 13.5352 27.3286C13.7754 27.2144 14.0537 27.1572 14.3701 27.1572C14.5928 27.1572 14.7979 27.1895 14.9854 27.2539C15.1729 27.3154 15.3354 27.4136 15.4731 27.5483C15.6108 27.6831 15.7178 27.856 15.7939 28.0669C15.8701 28.2778 15.9082 28.5327 15.9082 28.8315V32H15.0952V28.8711C15.0952 28.6221 15.0527 28.4229 14.9678 28.2734C14.8857 28.124 14.7686 28.0156 14.6162 27.9482C14.4639 27.8779 14.2852 27.8428 14.0801 27.8428C13.8398 27.8428 13.6392 27.8853 13.478 27.9702C13.3169 28.0552 13.188 28.1724 13.0913 28.3218C12.9946 28.4712 12.9243 28.6426 12.8804 28.8359C12.8394 29.0264 12.8188 29.2285 12.8188 29.4424ZM15.8994 28.9941L15.3545 29.1611C15.3574 28.9004 15.3999 28.6499 15.4819 28.4097C15.5669 28.1694 15.6885 27.9556 15.8467 27.7681C16.0078 27.5806 16.2056 27.4326 16.4399 27.3242C16.6743 27.2129 16.9424 27.1572 17.2441 27.1572C17.499 27.1572 17.7246 27.1909 17.9209 27.2583C18.1201 27.3257 18.2871 27.4297 18.4219 27.5703C18.5596 27.708 18.6636 27.8853 18.7339 28.1021C18.8042 28.3188 18.8394 28.5767 18.8394 28.8755V32H18.022V28.8667C18.022 28.6001 17.9795 28.3936 17.8945 28.2471C17.8125 28.0977 17.6953 27.9937 17.543 27.9351C17.3936 27.8735 17.2148 27.8428 17.0068 27.8428C16.8281 27.8428 16.6699 27.8735 16.5322 27.9351C16.3945 27.9966 16.2788 28.0815 16.1851 28.1899C16.0913 28.2954 16.0195 28.417 15.9697 28.5547C15.9229 28.6924 15.8994 28.8389 15.8994 28.9941ZM22.043 32.0879C21.7119 32.0879 21.4116 32.0322 21.1421 31.9209C20.8755 31.8066 20.6455 31.647 20.4521 31.4419C20.2617 31.2368 20.1152 30.9937 20.0127 30.7124C19.9102 30.4312 19.8589 30.1235 19.8589 29.7896V29.605C19.8589 29.2183 19.916 28.874 20.0303 28.5723C20.1445 28.2676 20.2998 28.0098 20.4961 27.7988C20.6924 27.5879 20.915 27.4282 21.1641 27.3198C21.4131 27.2114 21.6709 27.1572 21.9375 27.1572C22.2773 27.1572 22.5703 27.2158 22.8164 27.333C23.0654 27.4502 23.269 27.6143 23.4272 27.8252C23.5854 28.0332 23.7026 28.2793 23.7788 28.5635C23.855 28.8447 23.8931 29.1523 23.8931 29.4863V29.8511H20.3423V29.1875H23.0801V29.126C23.0684 28.915 23.0244 28.71 22.9482 28.5107C22.875 28.3115 22.7578 28.1475 22.5967 28.0186C22.4355 27.8896 22.2158 27.8252 21.9375 27.8252C21.7529 27.8252 21.583 27.8647 21.4277 27.9438C21.2725 28.02 21.1392 28.1343 21.0278 28.2866C20.9165 28.439 20.8301 28.625 20.7686 28.8447C20.707 29.0645 20.6763 29.3179 20.6763 29.605V29.7896C20.6763 30.0151 20.707 30.2275 20.7686 30.4268C20.833 30.623 20.9253 30.7959 21.0454 30.9453C21.1685 31.0947 21.3164 31.2119 21.4893 31.2969C21.665 31.3818 21.8643 31.4243 22.0869 31.4243C22.374 31.4243 22.6172 31.3657 22.8164 31.2485C23.0156 31.1313 23.1899 30.9746 23.3394 30.7783L23.8315 31.1694C23.729 31.3247 23.5986 31.4727 23.4404 31.6133C23.2822 31.7539 23.0874 31.8682 22.856 31.9561C22.6274 32.0439 22.3564 32.0879 22.043 32.0879Z" fill="#FE5F59"/>
</svg>
