<svg width="32" height="33" viewBox="0 0 32 33" fill="none" xmlns="http://www.w3.org/2000/svg">
<rect width="32" height="33" fill="#FE5F59"/>
<path d="M32 16C32 24.8366 24.8366 32 16 32C7.16344 32 0 24.8366 0 16C0 7.16344 7.16344 0 16 0C24.8366 0 32 7.16344 32 16Z" fill="white"/>
<path d="M10 12.5469V10.3383C10.0001 10.0309 10.0583 9.7273 10.1704 9.44917C10.2825 9.17104 10.4458 8.92524 10.6487 8.7293C10.8515 8.53337 11.0889 8.39213 11.3439 8.31566C11.5989 8.23919 11.8651 8.22938 12.1237 8.28693L21.546 10.1649C21.9552 10.256 22.3243 10.5109 22.5898 10.8858C22.8552 11.2607 23.0003 11.732 23 12.2184L23 13.4062" stroke="#FE5F59" stroke-width="2" stroke-linejoin="round"/>
<path d="M22.9231 13.375L9.07692 13.375C8.54972 13.375 8 13.8576 8 14.6094V23.5469C8 24.2987 8.54972 24.7812 9.07692 24.7812H22.9231C23.4503 24.7812 24 24.2987 24 23.5469V14.6094C24 13.8576 23.4503 13.375 22.9231 13.375Z" stroke="#FE5F59" stroke-width="2" stroke-linejoin="round"/>
<path d="M11.5 18.5625C11.7967 18.5625 12.0867 18.4718 12.3334 18.3018C12.58 18.1318 12.7723 17.8902 12.8858 17.6076C12.9994 17.3249 13.0291 17.0139 12.9712 16.7138C12.9133 16.4138 12.7704 16.1382 12.5607 15.9218C12.3509 15.7055 12.0836 15.5582 11.7926 15.4985C11.5017 15.4388 11.2001 15.4694 10.926 15.5865C10.6519 15.7036 10.4176 15.9018 10.2528 16.1562C10.088 16.4106 10 16.7097 10 17.0156C10 17.4259 10.158 17.8193 10.4393 18.1094C10.7206 18.3995 11.1022 18.5625 11.5 18.5625Z" fill="#E94B64"/>
</svg>
