<svg width="25" height="31" viewBox="0 0 25 31" fill="none" xmlns="http://www.w3.org/2000/svg">
<rect x="4" y="1" width="15" height="17" rx="2" stroke="#121212" stroke-opacity="0.9" stroke-width="2"/>
<line x1="3" y1="4.70654" x2="10" y2="4.70654" stroke="#121212" stroke-opacity="0.9" stroke-width="0.5"/>
<line x1="13" y1="6.35864" x2="20" y2="6.35864" stroke="#121212" stroke-opacity="0.9" stroke-width="0.5"/>
<line x1="3" y1="13.75" x2="10" y2="13.75" stroke="#121212" stroke-opacity="0.9" stroke-width="0.5"/>
<line x1="3" y1="10.4891" x2="10" y2="10.4891" stroke="#121212" stroke-opacity="0.9" stroke-width="0.5"/>
<path d="M1.01074 23.6016H1.83252L3.92871 28.8179L6.02051 23.6016H6.84668L4.24512 30H3.60352L1.01074 23.6016ZM0.742676 23.6016H1.46777L1.58643 27.5039V30H0.742676V23.6016ZM6.38525 23.6016H7.11035V30H6.2666V27.5039L6.38525 23.6016ZM10.4502 30.0879C10.1191 30.0879 9.81885 30.0322 9.54932 29.9209C9.28271 29.8066 9.05273 29.647 8.85938 29.4419C8.66895 29.2368 8.52246 28.9937 8.41992 28.7124C8.31738 28.4312 8.26611 28.1235 8.26611 27.7896V27.605C8.26611 27.2183 8.32324 26.874 8.4375 26.5723C8.55176 26.2676 8.70703 26.0098 8.90332 25.7988C9.09961 25.5879 9.32227 25.4282 9.57129 25.3198C9.82031 25.2114 10.0781 25.1572 10.3447 25.1572C10.6846 25.1572 10.9775 25.2158 11.2236 25.333C11.4727 25.4502 11.6763 25.6143 11.8345 25.8252C11.9927 26.0332 12.1099 26.2793 12.186 26.5635C12.2622 26.8447 12.3003 27.1523 12.3003 27.4863V27.8511H8.74951V27.1875H11.4873V27.126C11.4756 26.915 11.4316 26.71 11.3555 26.5107C11.2822 26.3115 11.165 26.1475 11.0039 26.0186C10.8428 25.8896 10.623 25.8252 10.3447 25.8252C10.1602 25.8252 9.99023 25.8647 9.83496 25.9438C9.67969 26.02 9.54639 26.1343 9.43506 26.2866C9.32373 26.439 9.2373 26.625 9.17578 26.8447C9.11426 27.0645 9.0835 27.3179 9.0835 27.605V27.7896C9.0835 28.0151 9.11426 28.2275 9.17578 28.4268C9.24023 28.623 9.33252 28.7959 9.45264 28.9453C9.57568 29.0947 9.72363 29.2119 9.89648 29.2969C10.0723 29.3818 10.2715 29.4243 10.4941 29.4243C10.7812 29.4243 11.0244 29.3657 11.2236 29.2485C11.4229 29.1313 11.5972 28.9746 11.7466 28.7783L12.2388 29.1694C12.1362 29.3247 12.0059 29.4727 11.8477 29.6133C11.6895 29.7539 11.4946 29.8682 11.2632 29.9561C11.0347 30.0439 10.7637 30.0879 10.4502 30.0879ZM14.0625 26.2603V30H13.2495V25.2451H14.0186L14.0625 26.2603ZM13.8691 27.4424L13.5308 27.4292C13.5337 27.104 13.582 26.8037 13.6758 26.5283C13.7695 26.25 13.9014 26.0083 14.0713 25.8032C14.2412 25.5981 14.4434 25.4399 14.6777 25.3286C14.915 25.2144 15.1772 25.1572 15.4644 25.1572C15.6987 25.1572 15.9097 25.1895 16.0972 25.2539C16.2847 25.3154 16.4443 25.415 16.5762 25.5527C16.7109 25.6904 16.8135 25.8691 16.8838 26.0889C16.9541 26.3057 16.9893 26.5708 16.9893 26.8843V30H16.1719V26.8755C16.1719 26.6265 16.1353 26.4272 16.062 26.2778C15.9888 26.1255 15.8818 26.0156 15.7412 25.9482C15.6006 25.8779 15.4277 25.8428 15.2227 25.8428C15.0205 25.8428 14.8359 25.8853 14.6689 25.9702C14.5049 26.0552 14.3628 26.1724 14.2427 26.3218C14.1255 26.4712 14.0332 26.6426 13.9658 26.8359C13.9014 27.0264 13.8691 27.2285 13.8691 27.4424ZM21.1333 28.9014V25.2451H21.9507V30H21.1729L21.1333 28.9014ZM21.2871 27.8994L21.6255 27.8906C21.6255 28.207 21.5918 28.5 21.5244 28.7695C21.46 29.0361 21.3545 29.2676 21.208 29.4639C21.0615 29.6602 20.8696 29.814 20.6323 29.9253C20.395 30.0337 20.1064 30.0879 19.7666 30.0879C19.5352 30.0879 19.3228 30.0542 19.1294 29.9868C18.939 29.9194 18.7749 29.8154 18.6372 29.6748C18.4995 29.5342 18.3926 29.3511 18.3164 29.1255C18.2432 28.8999 18.2065 28.6289 18.2065 28.3125V25.2451H19.0195V28.3213C19.0195 28.5352 19.043 28.7124 19.0898 28.853C19.1396 28.9907 19.2056 29.1006 19.2876 29.1826C19.3726 29.2617 19.4663 29.3174 19.5688 29.3496C19.6743 29.3818 19.7827 29.3979 19.894 29.3979C20.2397 29.3979 20.5137 29.332 20.7158 29.2002C20.918 29.0654 21.063 28.8853 21.1509 28.6597C21.2417 28.4312 21.2871 28.1777 21.2871 27.8994Z" fill="#121212" fill-opacity="0.9"/>
</svg>
