<svg width="31" height="21" viewBox="0 0 31 21" fill="none" xmlns="http://www.w3.org/2000/svg">
<circle cx="3.5" cy="3.5" r="3.5" fill="#121212" fill-opacity="0.9"/>
<circle cx="15.5" cy="3.5" r="3.5" fill="#121212" fill-opacity="0.9"/>
<circle cx="27.5" cy="3.5" r="3.5" fill="#121212" fill-opacity="0.9"/>
<path d="M6.01074 13.6016H6.83252L8.92871 18.8179L11.0205 13.6016H11.8467L9.24512 20H8.60352L6.01074 13.6016ZM5.74268 13.6016H6.46777L6.58643 17.5039V20H5.74268V13.6016ZM11.3853 13.6016H12.1104V20H11.2666V17.5039L11.3853 13.6016ZM13.2617 17.6753V17.5742C13.2617 17.2314 13.3115 16.9136 13.4111 16.6206C13.5107 16.3247 13.6543 16.0684 13.8418 15.8516C14.0293 15.6318 14.2563 15.4619 14.5229 15.3418C14.7896 15.2188 15.0884 15.1572 15.4194 15.1572C15.7534 15.1572 16.0537 15.2188 16.3203 15.3418C16.5898 15.4619 16.8184 15.6318 17.0059 15.8516C17.1963 16.0684 17.3413 16.3247 17.4409 16.6206C17.5405 16.9136 17.5903 17.2314 17.5903 17.5742V17.6753C17.5903 18.0181 17.5405 18.3359 17.4409 18.6289C17.3413 18.9219 17.1963 19.1782 17.0059 19.3979C16.8184 19.6147 16.5913 19.7847 16.3247 19.9077C16.061 20.0278 15.7622 20.0879 15.4282 20.0879C15.0942 20.0879 14.7939 20.0278 14.5273 19.9077C14.2607 19.7847 14.0322 19.6147 13.8418 19.3979C13.6543 19.1782 13.5107 18.9219 13.4111 18.6289C13.3115 18.3359 13.2617 18.0181 13.2617 17.6753ZM14.0747 17.5742V17.6753C14.0747 17.9126 14.1025 18.1367 14.1582 18.3477C14.2139 18.5557 14.2974 18.7402 14.4087 18.9014C14.5229 19.0625 14.665 19.1899 14.835 19.2837C15.0049 19.3745 15.2026 19.4199 15.4282 19.4199C15.6509 19.4199 15.8457 19.3745 16.0127 19.2837C16.1826 19.1899 16.3232 19.0625 16.4346 18.9014C16.5459 18.7402 16.6294 18.5557 16.6851 18.3477C16.7437 18.1367 16.7729 17.9126 16.7729 17.6753V17.5742C16.7729 17.3398 16.7437 17.1187 16.6851 16.9106C16.6294 16.6997 16.5444 16.5137 16.4302 16.3525C16.3188 16.1885 16.1782 16.0596 16.0083 15.9658C15.8413 15.8721 15.645 15.8252 15.4194 15.8252C15.1968 15.8252 15.0005 15.8721 14.8306 15.9658C14.6636 16.0596 14.5229 16.1885 14.4087 16.3525C14.2974 16.5137 14.2139 16.6997 14.1582 16.9106C14.1025 17.1187 14.0747 17.3398 14.0747 17.5742ZM19.4229 15.9922V20H18.6099V15.2451H19.4009L19.4229 15.9922ZM20.9082 15.2188L20.9038 15.9746C20.8364 15.96 20.772 15.9512 20.7104 15.9482C20.6519 15.9424 20.5845 15.9395 20.5083 15.9395C20.3208 15.9395 20.1553 15.9688 20.0117 16.0273C19.8682 16.0859 19.7466 16.168 19.647 16.2734C19.5474 16.3789 19.4683 16.5049 19.4097 16.6514C19.354 16.7949 19.3174 16.9531 19.2998 17.126L19.0713 17.2578C19.0713 16.9707 19.0991 16.7012 19.1548 16.4492C19.2134 16.1973 19.3027 15.9746 19.4229 15.7812C19.543 15.585 19.6953 15.4326 19.8799 15.3242C20.0674 15.2129 20.29 15.1572 20.5479 15.1572C20.6064 15.1572 20.6738 15.1646 20.75 15.1792C20.8262 15.1909 20.8789 15.2041 20.9082 15.2188ZM23.5449 20.0879C23.2139 20.0879 22.9136 20.0322 22.644 19.9209C22.3774 19.8066 22.1475 19.647 21.9541 19.4419C21.7637 19.2368 21.6172 18.9937 21.5146 18.7124C21.4121 18.4312 21.3608 18.1235 21.3608 17.7896V17.605C21.3608 17.2183 21.418 16.874 21.5322 16.5723C21.6465 16.2676 21.8018 16.0098 21.998 15.7988C22.1943 15.5879 22.417 15.4282 22.666 15.3198C22.915 15.2114 23.1729 15.1572 23.4395 15.1572C23.7793 15.1572 24.0723 15.2158 24.3184 15.333C24.5674 15.4502 24.771 15.6143 24.9292 15.8252C25.0874 16.0332 25.2046 16.2793 25.2808 16.5635C25.3569 16.8447 25.395 17.1523 25.395 17.4863V17.8511H21.8442V17.1875H24.582V17.126C24.5703 16.915 24.5264 16.71 24.4502 16.5107C24.377 16.3115 24.2598 16.1475 24.0986 16.0186C23.9375 15.8896 23.7178 15.8252 23.4395 15.8252C23.2549 15.8252 23.085 15.8647 22.9297 15.9438C22.7744 16.02 22.6411 16.1343 22.5298 16.2866C22.4185 16.439 22.332 16.625 22.2705 16.8447C22.209 17.0645 22.1782 17.3179 22.1782 17.605V17.7896C22.1782 18.0151 22.209 18.2275 22.2705 18.4268C22.335 18.623 22.4272 18.7959 22.5474 18.9453C22.6704 19.0947 22.8184 19.2119 22.9912 19.2969C23.167 19.3818 23.3662 19.4243 23.5889 19.4243C23.876 19.4243 24.1191 19.3657 24.3184 19.2485C24.5176 19.1313 24.6919 18.9746 24.8413 18.7783L25.3335 19.1694C25.231 19.3247 25.1006 19.4727 24.9424 19.6133C24.7842 19.7539 24.5894 19.8682 24.3579 19.9561C24.1294 20.0439 23.8584 20.0879 23.5449 20.0879Z" fill="#121212" fill-opacity="0.9"/>
</svg>
