<svg width="11" height="10" viewBox="0 0 11 10" fill="none" xmlns="http://www.w3.org/2000/svg">
<path d="M6.31939 4.09536C6.31939 5.14932 6.00273 6.08772 5.51022 6.75327C5.01765 7.4189 4.36922 7.79071 3.6888 7.79071C3.00838 7.79071 2.35995 7.4189 1.86738 6.75327C1.37487 6.08772 1.0582 5.14932 1.0582 4.09536C1.0582 3.04139 1.37487 2.10299 1.86738 1.43744C2.35995 0.771813 3.00838 0.4 3.6888 0.4C4.36922 0.4 5.01765 0.771813 5.51022 1.43744C6.00273 2.10299 6.31939 3.04139 6.31939 4.09536Z" stroke="#808080" stroke-width="0.8"/>
<rect width="5.83087" height="0.86761" rx="0.433805" transform="matrix(0.809054 0.587735 -0.369637 0.929176 6.06348 5.53333)" fill="#808080"/>
</svg>
