<svg width="16" height="11" viewBox="0 0 16 11" fill="none" xmlns="http://www.w3.org/2000/svg">
<path fill-rule="evenodd" clip-rule="evenodd" d="M7.66371 2.27733C9.8796 2.27742 12.0108 3.12886 13.6167 4.65566C13.7376 4.77354 13.9309 4.77205 14.05 4.65233L15.206 3.48566C15.2663 3.42494 15.3 3.34269 15.2995 3.25711C15.299 3.17153 15.2644 3.08967 15.2034 3.02966C10.9883 -1.00989 4.33847 -1.00989 0.123372 3.02966C0.0623135 3.08963 0.0276696 3.17146 0.0271066 3.25704C0.0265436 3.34262 0.0601078 3.42489 0.120372 3.48566L1.27671 4.65233C1.39573 4.77223 1.58918 4.77372 1.71004 4.65566C3.31619 3.12876 5.4476 2.27732 7.66371 2.27733ZM7.66371 6.07299C8.8812 6.07292 10.0552 6.52545 10.9577 7.34266C11.0798 7.45864 11.272 7.45613 11.391 7.33699L12.5457 6.17033C12.6065 6.10913 12.6403 6.02612 12.6394 5.93985C12.6385 5.85359 12.6031 5.77127 12.541 5.71133C9.79284 3.15494 5.5369 3.15494 2.78871 5.71133C2.72663 5.77127 2.69121 5.85363 2.69039 5.93992C2.68958 6.02621 2.72344 6.10922 2.78437 6.17033L3.93871 7.33699C4.05769 7.45613 4.24998 7.45864 4.37204 7.34266C5.27391 6.52599 6.44702 6.0735 7.66371 6.07299ZM9.9767 8.62681C9.97847 8.71332 9.94446 8.79672 9.88271 8.85733L7.88537 10.873C7.82682 10.9322 7.747 10.9656 7.66371 10.9656C7.58041 10.9656 7.50059 10.9322 7.44204 10.873L5.44437 8.85733C5.38266 8.79668 5.34871 8.71325 5.35054 8.62674C5.35237 8.54023 5.38982 8.45831 5.45404 8.40033C6.72961 7.32144 8.5978 7.32144 9.87337 8.40033C9.93755 8.45836 9.97493 8.54031 9.9767 8.62681Z" fill="#070707"/>
</svg>
